<svg xmlns="http://www.w3.org/2000/svg" width="1050" height="620" viewBox="0 0 1050 620">
<rect width="100%" height="100%" fill="#ffffff"/>
<text x="90" y="42" font-family="Arial" font-size="28" font-weight="700" fill="#111827">Win Probability Curve</text>
<text x="90" y="70" font-family="Arial" font-size="15" fill="#4b5563">Match 729297 · Season 2014 · batting-team win probability after each over</text>
<line x1="90" y1="530" x2="1010" y2="530" stroke="#374151" stroke-width="1.5"/>
<line x1="90" y1="90" x2="90" y2="530" stroke="#374151" stroke-width="1.5"/>
<line x1="90" y1="530.0" x2="1010" y2="530.0" stroke="#e5e7eb"/>
<text x="78" y="535.0" text-anchor="end" font-family="Arial" font-size="13" fill="#4b5563">0%</text>
<line x1="90" y1="442.0" x2="1010" y2="442.0" stroke="#e5e7eb"/>
<text x="78" y="447.0" text-anchor="end" font-family="Arial" font-size="13" fill="#4b5563">20%</text>
<line x1="90" y1="354.0" x2="1010" y2="354.0" stroke="#e5e7eb"/>
<text x="78" y="359.0" text-anchor="end" font-family="Arial" font-size="13" fill="#4b5563">40%</text>
<line x1="90" y1="266.0" x2="1010" y2="266.0" stroke="#e5e7eb"/>
<text x="78" y="271.0" text-anchor="end" font-family="Arial" font-size="13" fill="#4b5563">60%</text>
<line x1="90" y1="178.0" x2="1010" y2="178.0" stroke="#e5e7eb"/>
<text x="78" y="183.0" text-anchor="end" font-family="Arial" font-size="13" fill="#4b5563">80%</text>
<line x1="90" y1="90.0" x2="1010" y2="90.0" stroke="#e5e7eb"/>
<text x="78" y="95.0" text-anchor="end" font-family="Arial" font-size="13" fill="#4b5563">100%</text>
<line x1="90.0" y1="90" x2="90.0" y2="530" stroke="#f3f4f6"/>
<text x="90.0" y="558" text-anchor="middle" font-family="Arial" font-size="13" fill="#4b5563">1</text>
<line x1="283.7" y1="90" x2="283.7" y2="530" stroke="#f3f4f6"/>
<text x="283.7" y="558" text-anchor="middle" font-family="Arial" font-size="13" fill="#4b5563">5</text>
<line x1="525.8" y1="90" x2="525.8" y2="530" stroke="#f3f4f6"/>
<text x="525.8" y="558" text-anchor="middle" font-family="Arial" font-size="13" fill="#4b5563">10</text>
<line x1="767.9" y1="90" x2="767.9" y2="530" stroke="#f3f4f6"/>
<text x="767.9" y="558" text-anchor="middle" font-family="Arial" font-size="13" fill="#4b5563">15</text>
<line x1="1010.0" y1="90" x2="1010.0" y2="530" stroke="#f3f4f6"/>
<text x="1010.0" y="558" text-anchor="middle" font-family="Arial" font-size="13" fill="#4b5563">20</text>
<polyline points="90.0,232.1 138.4,293.7 186.8,261.2 235.3,284.0 283.7,280.1 283.7,277.9 332.1,280.1 380.5,255.9 428.9,248.8 477.4,319.7 525.8,316.2 574.2,397.6 622.6,348.7 671.1,363.2 719.5,338.2 767.9,326.7 816.3,314.4 864.7,317.9 913.2,313.1 961.6,339.5 1010.0,335.1" fill="none" stroke="#2563eb" stroke-width="3"/>
<circle cx="90.0" cy="232.1" r="3.5" fill="#2563eb"/>
<circle cx="138.4" cy="293.7" r="3.5" fill="#2563eb"/>
<circle cx="186.8" cy="261.2" r="3.5" fill="#2563eb"/>
<circle cx="235.3" cy="284.0" r="3.5" fill="#2563eb"/>
<circle cx="283.7" cy="280.1" r="3.5" fill="#2563eb"/>
<circle cx="283.7" cy="277.9" r="3.5" fill="#2563eb"/>
<circle cx="332.1" cy="280.1" r="3.5" fill="#2563eb"/>
<circle cx="380.5" cy="255.9" r="3.5" fill="#2563eb"/>
<circle cx="428.9" cy="248.8" r="3.5" fill="#2563eb"/>
<circle cx="477.4" cy="319.7" r="3.5" fill="#2563eb"/>
<circle cx="525.8" cy="316.2" r="3.5" fill="#2563eb"/>
<circle cx="574.2" cy="397.6" r="3.5" fill="#2563eb"/>
<circle cx="622.6" cy="348.7" r="3.5" fill="#2563eb"/>
<circle cx="671.1" cy="363.2" r="3.5" fill="#2563eb"/>
<circle cx="719.5" cy="338.2" r="3.5" fill="#2563eb"/>
<circle cx="767.9" cy="326.7" r="3.5" fill="#2563eb"/>
<circle cx="816.3" cy="314.4" r="3.5" fill="#2563eb"/>
<circle cx="864.7" cy="317.9" r="3.5" fill="#2563eb"/>
<circle cx="913.2" cy="313.1" r="3.5" fill="#2563eb"/>
<circle cx="961.6" cy="339.5" r="3.5" fill="#2563eb"/>
<circle cx="1010.0" cy="335.1" r="3.5" fill="#2563eb"/>
<rect x="90" y="588" width="16" height="16" fill="#2563eb"/>
<text x="114" y="601" font-family="Arial" font-size="14" fill="#111827">Innings 1: Chennai Super Kings</text>
<polyline points="90.0,133.1 138.4,255.0 186.8,238.3 235.3,221.1 283.7,189.0 332.1,279.6 380.5,337.7 428.9,324.5 477.4,317.0 525.8,365.4 574.2,377.3 622.6,377.3 671.1,456.5 719.5,454.3 767.9,479.4 767.9,464.4 816.3,501.4 864.7,418.2 913.2,474.1 961.6,500.1" fill="none" stroke="#f97316" stroke-width="3"/>
<circle cx="90.0" cy="133.1" r="3.5" fill="#f97316"/>
<circle cx="138.4" cy="255.0" r="3.5" fill="#f97316"/>
<circle cx="186.8" cy="238.3" r="3.5" fill="#f97316"/>
<circle cx="235.3" cy="221.1" r="3.5" fill="#f97316"/>
<circle cx="283.7" cy="189.0" r="3.5" fill="#f97316"/>
<circle cx="332.1" cy="279.6" r="3.5" fill="#f97316"/>
<circle cx="380.5" cy="337.7" r="3.5" fill="#f97316"/>
<circle cx="428.9" cy="324.5" r="3.5" fill="#f97316"/>
<circle cx="477.4" cy="317.0" r="3.5" fill="#f97316"/>
<circle cx="525.8" cy="365.4" r="3.5" fill="#f97316"/>
<circle cx="574.2" cy="377.3" r="3.5" fill="#f97316"/>
<circle cx="622.6" cy="377.3" r="3.5" fill="#f97316"/>
<circle cx="671.1" cy="456.5" r="3.5" fill="#f97316"/>
<circle cx="719.5" cy="454.3" r="3.5" fill="#f97316"/>
<circle cx="767.9" cy="479.4" r="3.5" fill="#f97316"/>
<circle cx="767.9" cy="464.4" r="3.5" fill="#f97316"/>
<circle cx="816.3" cy="501.4" r="3.5" fill="#f97316"/>
<circle cx="864.7" cy="418.2" r="3.5" fill="#f97316"/>
<circle cx="913.2" cy="474.1" r="3.5" fill="#f97316"/>
<circle cx="961.6" cy="500.1" r="3.5" fill="#f97316"/>
<rect x="350" y="588" width="16" height="16" fill="#f97316"/>
<text x="374" y="601" font-family="Arial" font-size="14" fill="#111827">Innings 2: Rajasthan Royals</text>
<text x="550.0" y="602" text-anchor="middle" font-family="Arial" font-size="13" fill="#4b5563">Over number</text>
<text x="22" y="310.0" transform="rotate(-90 22 310.0)" text-anchor="middle" font-family="Arial" font-size="13" fill="#4b5563">Win probability</text>
</svg>